# xmcd
#
# Track frame offsets: 
#        150
#        23579
#        53089
#        73807
#        98301
#        117449
#        135350
#        153007
#        166390
#        182472
#        204022
#        227896
#        255634
#
# Disc length: 3709 seconds
#
# Revision: 0
# Processed by: cddbd v1.5.2PL0 Copyright (c) Steve Scherf et al.
# Submitted via: ExactAudioCopy v0.95a5
#
DISCID=960e7b0d
DTITLE=Tuba Fats - Tuba Fats
DYEAR=1900
DGENRE=Blues
TTITLE0=Lilly Mae
TTITLE1=Joe Avery's Piece
TTITLE2=Every Day I Have The Blues
TTITLE3=Girl Of My Dreams
TTITLE4=Tiger Ray
TTITLE5=Ain't Got Home
TTITLE6=His Eye Is On The Sparrow
TTITLE7=Lord Lord Lord
TTITLE8=Didn't He Ramble
TTITLE9=Am I Blue
TTITLE10=St. Louis Blues
TTITLE11=Welsh Blues
TTITLE12=Algiers Strut
EXTD=
EXTT0=
EXTT1=
EXTT2=
EXTT3=
EXTT4=
EXTT5=
EXTT6=
EXTT7=
EXTT8=
EXTT9=
EXTT10=
EXTT11=
EXTT12=
PLAYORDER=
